<svg style="position: absolute; width: 0; height: 0; overflow: hidden;" version="1.1" xmlns="http://www.w3.org/2000/svg" xmlns:xlink="http://www.w3.org/1999/xlink">
<defs>

<symbol viewBox="0 0 117 36" fill="none" id="logo">
  <title>logo</title>
  <path d="M0 4C0 1.79086 1.79086 0 4 0H28C30.2091 0 32 1.79086 32 4V8C32 21.2548 21.2548 32 8 32H4C1.79086 32 0 30.2091 0 28V4Z" fill="#F59E0B"/>
  <path d="M4 8C4 5.79086 5.79086 4 8 4H32C34.2091 4 36 5.79086 36 8V12C36 25.2548 25.2548 36 12 36H8C5.79086 36 4 34.2091 4 32V8Z" fill="#4BE4C9"/>
  <path d="M55.952 26V14.8H59.408V26H55.952ZM49.28 26V14.8H52.736V26H49.28ZM50.576 21.92L50.592 18.912H57.904V21.92H50.576Z" fill="#1B1C57"/>
  <path d="M65.9835 26.16C65.0555 26.16 64.2289 25.968 63.5035 25.584C62.7782 25.2 62.2075 24.6774 61.7915 24.016C61.3755 23.344 61.1675 22.576 61.1675 21.712C61.1675 20.848 61.3755 20.0854 61.7915 19.424C62.2075 18.752 62.7782 18.224 63.5035 17.84C64.2289 17.456 65.0555 17.264 65.9835 17.264C66.9115 17.264 67.7329 17.456 68.4475 17.84C69.1729 18.224 69.7382 18.752 70.1435 19.424C70.5595 20.0854 70.7675 20.848 70.7675 21.712C70.7675 22.576 70.5595 23.344 70.1435 24.016C69.7382 24.6774 69.1729 25.2 68.4475 25.584C67.7329 25.968 66.9115 26.16 65.9835 26.16ZM65.9835 23.44C66.2715 23.44 66.5275 23.3654 66.7515 23.216C66.9862 23.0667 67.1675 22.864 67.2955 22.608C67.4235 22.3414 67.4875 22.0427 67.4875 21.712C67.4875 21.3707 67.4235 21.072 67.2955 20.816C67.1675 20.5494 66.9862 20.3414 66.7515 20.192C66.5275 20.0427 66.2715 19.9681 65.9835 19.9681C65.6849 19.9681 65.4182 20.0427 65.1835 20.192C64.9595 20.3414 64.7782 20.5494 64.6395 20.816C64.5115 21.072 64.4475 21.3707 64.4475 21.712C64.4475 22.0427 64.5115 22.3414 64.6395 22.608C64.7782 22.864 64.9595 23.0667 65.1835 23.216C65.4182 23.3654 65.6849 23.44 65.9835 23.44Z" fill="#1B1C57"/>
  <path d="M75.234 26.1761C74.5834 26.1761 74.034 26.0427 73.586 25.776C73.138 25.5094 72.7967 25.12 72.562 24.608C72.3274 24.0854 72.21 23.456 72.21 22.72V17.44H75.458V22.448C75.458 22.6827 75.4954 22.88 75.57 23.04C75.6554 23.2 75.7727 23.3227 75.922 23.408C76.0714 23.4934 76.2527 23.536 76.466 23.536C76.626 23.536 76.77 23.5147 76.898 23.472C77.0367 23.4187 77.154 23.344 77.25 23.248C77.346 23.1521 77.4207 23.0454 77.474 22.928C77.5274 22.8 77.554 22.6667 77.554 22.528V17.44H80.802V26H77.826L77.634 24.272L78.242 24.08C78.1247 24.4854 77.9167 24.8481 77.618 25.168C77.33 25.4774 76.978 25.7227 76.562 25.904C76.146 26.0854 75.7034 26.1761 75.234 26.1761Z" fill="#1B1C57"/>
  <path d="M83.0732 26V17.44H86.0812L86.2412 19.168L85.5532 19.36C85.6705 18.9547 85.8785 18.5974 86.1772 18.288C86.4865 17.968 86.8545 17.7174 87.2812 17.536C87.7078 17.3547 88.1612 17.264 88.6412 17.264C89.2812 17.264 89.8252 17.3974 90.2732 17.664C90.7212 17.9307 91.0572 18.3254 91.2812 18.848C91.5158 19.36 91.6332 19.984 91.6332 20.72V26H88.3852V20.992C88.3852 20.7574 88.3478 20.56 88.2732 20.4C88.1985 20.24 88.0865 20.1174 87.9372 20.032C87.7878 19.9467 87.6118 19.904 87.4092 19.904C87.2492 19.904 87.0998 19.9307 86.9612 19.984C86.8332 20.0267 86.7212 20.096 86.6252 20.192C86.5292 20.288 86.4545 20.3947 86.4012 20.512C86.3478 20.6294 86.3212 20.7627 86.3212 20.912V26H84.7052C84.2998 26 83.9585 26 83.6812 26C83.4145 26 83.2118 26 83.0732 26Z" fill="#1B1C57"/>
  <path d="M94.1618 26V15.28H97.4098V26H94.1618ZM92.8338 20.16V17.44H98.8178V20.16H92.8338Z" fill="#1B1C57"/>
  <path d="M104.327 26.16C103.335 26.16 102.481 25.968 101.767 25.584C101.052 25.2 100.503 24.6774 100.119 24.016C99.7345 23.344 99.5425 22.576 99.5425 21.712C99.5425 21.072 99.6492 20.48 99.8625 19.936C100.076 19.392 100.375 18.9227 100.759 18.528C101.153 18.1227 101.612 17.8134 102.135 17.6C102.668 17.376 103.249 17.264 103.879 17.264C104.508 17.264 105.079 17.376 105.591 17.6C106.113 17.8134 106.561 18.1227 106.935 18.528C107.308 18.9227 107.591 19.392 107.783 19.936C107.985 20.48 108.076 21.072 108.055 21.712L108.039 22.384H101.335L100.967 20.864H105.463L105.159 21.184V20.896C105.159 20.6934 105.105 20.5174 104.999 20.368C104.903 20.208 104.764 20.0854 104.583 20C104.401 19.9147 104.188 19.872 103.943 19.872C103.633 19.872 103.372 19.936 103.159 20.064C102.945 20.192 102.78 20.3734 102.663 20.608C102.556 20.8427 102.503 21.1254 102.503 21.456C102.503 21.84 102.583 22.176 102.743 22.464C102.913 22.752 103.159 22.976 103.479 23.136C103.809 23.296 104.215 23.376 104.695 23.376C105.015 23.376 105.287 23.3387 105.511 23.264C105.745 23.1787 105.991 23.0454 106.247 22.864L107.735 24.96C107.34 25.2694 106.951 25.5094 106.567 25.68C106.193 25.8507 105.82 25.9734 105.447 26.048C105.084 26.1227 104.711 26.16 104.327 26.16Z" fill="#1B1C57"/>
  <path d="M109.558 26V17.44H112.566L112.758 20.288L112.038 19.84C112.176 19.3494 112.395 18.912 112.694 18.528C112.992 18.1334 113.35 17.824 113.766 17.6C114.192 17.376 114.646 17.264 115.126 17.264C115.318 17.264 115.499 17.28 115.67 17.312C115.84 17.3334 116.006 17.3654 116.166 17.408L115.27 21.008C115.163 20.9334 114.992 20.864 114.758 20.8C114.534 20.736 114.288 20.704 114.022 20.704C113.83 20.704 113.654 20.736 113.494 20.8C113.344 20.8534 113.216 20.9387 113.11 21.056C113.014 21.1734 112.939 21.312 112.886 21.472C112.832 21.6321 112.806 21.8187 112.806 22.032V26H109.558Z" fill="#1B1C57"/>
</symbol>

<symbol xmlns="http://www.w3.org/2000/svg" viewBox="0 0 24 24" id="arrow-down" fill="currentColor">
<title>arrow-down</title>
  <path d="M18.9982 10.1353C18.9987 9.87047 18.9175 9.61386 18.7687 9.40997C18.6849 9.29522 18.5821 9.20036 18.466 9.13083C18.3499 9.06131 18.2229 9.01847 18.0922 9.00479C17.9615 8.9911 17.8297 9.00683 17.7044 9.05108C17.5791 9.09533 17.4626 9.16722 17.3618 9.26265L12.0137 14.3397L6.65557 9.44397C6.5535 9.34983 6.43607 9.27953 6.31001 9.23711C6.18395 9.19469 6.05175 9.18099 5.92101 9.19679C5.79027 9.21258 5.66357 9.25757 5.54819 9.32916C5.43281 9.40075 5.33103 9.49754 5.24869 9.61396C5.15785 9.73121 5.08934 9.86853 5.04744 10.0173C5.00554 10.166 4.99117 10.323 5.00522 10.4784C5.01928 10.6337 5.06145 10.7841 5.12911 10.9201C5.19676 11.0561 5.28842 11.1747 5.39835 11.2685L11.3851 16.7422C11.5636 16.9089 11.7876 17 12.0187 17C12.2498 17 12.4737 16.9089 12.6523 16.7422L18.639 11.0759C18.7597 10.9622 18.8552 10.8178 18.9176 10.6543C18.98 10.4909 19.0076 10.3131 18.9982 10.1353Z"/>
</symbol>

<symbol xmlns="http://www.w3.org/2000/svg" viewBox="0 0 24 24" id="arrow-left" fill="currentColor">
<title>arrow-left</title>
  <path d="M13.8647 5.0018C14.1295 5.00135 14.3861 5.08254 14.59 5.2313C14.7048 5.31506 14.7996 5.41793 14.8692 5.53402C14.9387 5.65011 14.9815 5.77714 14.9952 5.90782C15.0089 6.03851 14.9932 6.17029 14.9489 6.29562C14.9047 6.42094 14.8328 6.53735 14.7374 6.63818L9.66033 11.9863L14.556 17.3444C14.6502 17.4465 14.7205 17.5639 14.7629 17.69C14.8053 17.8161 14.819 17.9482 14.8032 18.079C14.7874 18.2097 14.7424 18.3364 14.6708 18.4518C14.5992 18.5672 14.5025 18.669 14.386 18.7513C14.2688 18.8421 14.1315 18.9107 13.9827 18.9526C13.834 18.9945 13.677 19.0088 13.5216 18.9948C13.3663 18.9807 13.2159 18.9385 13.0799 18.8709C12.9439 18.8032 12.8253 18.7116 12.7315 18.6016L7.2578 12.6149C7.09112 12.4364 7 12.2124 7 11.9813C7 11.7502 7.09112 11.5263 7.2578 11.3477L12.9241 5.36101C13.0378 5.24026 13.1822 5.14481 13.3457 5.0824C13.5091 5.01999 13.6869 4.99238 13.8647 5.0018Z"/>
</symbol>

<symbol xmlns="http://www.w3.org/2000/svg" viewBox="0 0 24 24" id="arrow-right" fill="currentColor">
<title>arrow-right</title>
  <path d="M10.1353 5.0018C9.87047 5.00135 9.61386 5.08254 9.40997 5.2313C9.29522 5.31506 9.20036 5.41793 9.13083 5.53402C9.0613 5.65011 9.01847 5.77714 9.00479 5.90782C8.9911 6.03851 9.00683 6.17029 9.05108 6.29562C9.09533 6.42094 9.16722 6.53735 9.26265 6.63818L14.3397 11.9863L9.44397 17.3444C9.34983 17.4465 9.27953 17.5639 9.23711 17.69C9.19469 17.8161 9.18099 17.9482 9.19679 18.079C9.21258 18.2097 9.25757 18.3364 9.32916 18.4518C9.40075 18.5672 9.49754 18.669 9.61396 18.7513C9.73121 18.8421 9.86853 18.9107 10.0173 18.9526C10.166 18.9945 10.323 19.0088 10.4784 18.9948C10.6337 18.9807 10.7841 18.9385 10.9201 18.8709C11.0561 18.8032 11.1747 18.7116 11.2685 18.6016L16.7422 12.6149C16.9089 12.4364 17 12.2124 17 11.9813C17 11.7502 16.9089 11.5263 16.7422 11.3477L11.0759 5.36101C10.9622 5.24026 10.8178 5.14481 10.6543 5.0824C10.4909 5.01999 10.3131 4.99238 10.1353 5.0018Z"/>
</symbol>

<symbol xmlns="http://www.w3.org/2000/svg" viewBox="0 0 18 22" fill="none" id="map-pin">
<title>map-pin</title>
  <path d="M9 0C11.3869 0 13.6761 0.993372 15.364 2.76159C17.0518 4.5298 18 6.92801 18 9.42865C18 13.934 15.0975 18.081 9.402 21.8776C9.28181 21.9575 9.14237 22 9 22C8.85763 22 8.71819 21.9575 8.598 21.8776C2.9025 18.081 0 13.934 0 9.42865C0 6.92801 0.948211 4.5298 2.63604 2.76159C4.32387 0.993372 6.61305 0 9 0ZM9 6.28576C8.20435 6.28576 7.44129 6.61689 6.87868 7.20629C6.31607 7.7957 6 8.5951 6 9.42865C6 10.2622 6.31607 11.0616 6.87868 11.651C7.44129 12.2404 8.20435 12.5715 9 12.5715C9.79565 12.5715 10.5587 12.2404 11.1213 11.651C11.6839 11.0616 12 10.2622 12 9.42865C12 8.5951 11.6839 7.7957 11.1213 7.20629C10.5587 6.61689 9.79565 6.28576 9 6.28576Z" fill="#F59E0B"/>
</symbol>

<symbol xmlns="http://www.w3.org/2000/svg" viewBox="0 0 24 24" id="house" fill="currentColor">
<title>house</title>
  <path d="M21 10.8319V19.5C20.9999 19.7719 20.9262 20.0386 20.7868 20.272C20.6475 20.5054 20.4476 20.6968 20.2084 20.8259C19.9917 20.9432 19.7485 21.0031 19.5021 20.9999H14.9968C14.7978 20.9999 14.6071 20.9209 14.4664 20.7803C14.3258 20.6396 14.2468 20.4488 14.2468 20.2499V15.7493C14.2468 15.5504 14.1677 15.3596 14.0271 15.2189C13.8864 15.0783 13.6957 14.9993 13.4968 14.9993H10.4968C10.2978 14.9993 10.1071 15.0783 9.96643 15.2189C9.82577 15.3596 9.74676 15.5504 9.74676 15.7493V20.2499C9.74676 20.4488 9.66774 20.6396 9.52709 20.7803C9.38644 20.9209 9.19567 20.9999 8.99676 20.9999H4.50023C4.28758 21.0005 4.07726 20.9556 3.88338 20.8682C3.68951 20.7808 3.51654 20.653 3.37607 20.4934C3.12949 20.2082 2.99574 19.8427 3.00004 19.4657V10.8318C3.0002 10.6228 3.04395 10.4162 3.12849 10.225C3.21302 10.0339 3.33649 9.86251 3.49101 9.7218L10.9904 2.90308C11.2658 2.65075 11.6258 2.51078 11.9994 2.51074C12.373 2.51071 12.733 2.65062 13.0085 2.90289L20.5092 9.72189C20.6636 9.86263 20.7871 10.034 20.8716 10.2252C20.9561 10.4163 20.9999 10.6229 21 10.8319Z"/>
</symbol>

<symbol xmlns="http://www.w3.org/2000/svg" viewBox="0 0 24 24" id="villa" fill="currentColor">
<title>villa</title>
  <path d="M7 21H4C3.45 21 3 20.55 3 20V8.69C3 8.27 3.25 7.9 3.64 7.75L14.64 3.52C14.7921 3.46132 14.9561 3.4407 15.118 3.45992C15.2798 3.47915 15.4345 3.53765 15.5686 3.63031C15.7027 3.72298 15.8121 3.84702 15.8873 3.99162C15.9624 4.13623 16.0012 4.29702 16 4.46V10H8C7.45 10 7 10.45 7 11V21ZM17 12H10C9.45 12 9 12.45 9 13V20C9 20.55 9.45 21 10 21H14V17C14 16.45 14.45 16 15 16C15.55 16 16 16.45 16 17V21H20C20.55 21 21 20.55 21 20V12C21 10.9 20.1 10 19 10C17.9 10 17 10.9 17 12Z"/>
</symbol>

<svg xmlns="http://www.w3.org/2000/svg" viewBox="0 0 24 24" id="apartment" fill="currentColor">
<title>apartment</title>
  <path d="M17 11V5C17 3.9 16.1 3 15 3H9C7.9 3 7 3.9 7 5V7H5C3.9 7 3 7.9 3 9V19C3 20.1 3.9 21 5 21H11V17H13V21H19C20.1 21 21 20.1 21 19V13C21 11.9 20.1 11 19 11H17ZM7 19H5V17H7V19ZM7 15H5V13H7V15ZM7 11H5V9H7V11ZM11 15H9V13H11V15ZM11 11H9V9H11V11ZM11 7H9V5H11V7ZM15 15H13V13H15V15ZM15 11H13V9H15V11ZM15 7H13V5H15V7ZM19 19H17V17H19V19ZM19 15H17V13H19V15Z"/>
</svg>

<symbol xmlns="http://www.w3.org/2000/svg" viewBox="0 0 16 16" id="fire" fill="currentColor">
<title>fire</title>
  <path d="M13.0328 7.33124C12.7295 6.64852 12.2885 6.03574 11.7375 5.53124L11.2828 5.11406C11.2674 5.10028 11.2488 5.0905 11.2287 5.08558C11.2086 5.08067 11.1876 5.08076 11.1675 5.08585C11.1475 5.09094 11.129 5.10087 11.1137 5.11478C11.0984 5.12869 11.0867 5.14615 11.0797 5.16562L10.8766 5.74843C10.75 6.11406 10.5172 6.48749 10.1875 6.85468C10.1656 6.87812 10.1406 6.88437 10.1234 6.88593C10.1063 6.88749 10.0797 6.88437 10.0562 6.86249C10.0344 6.84374 10.0234 6.81562 10.025 6.78749C10.0828 5.84687 9.80156 4.78593 9.18594 3.63124C8.67656 2.67187 7.96875 1.92343 7.08437 1.40156L6.43906 1.02187C6.35469 0.971869 6.24688 1.03749 6.25156 1.13593L6.28594 1.88593C6.30937 2.39843 6.25 2.85156 6.10938 3.22812C5.9375 3.68906 5.69062 4.11718 5.375 4.50156C5.15535 4.76869 4.90639 5.0103 4.63281 5.22187C3.97391 5.72838 3.43815 6.37739 3.06562 7.12031C2.69402 7.8697 2.50045 8.69477 2.5 9.53124C2.5 10.2687 2.64531 10.9828 2.93281 11.6562C3.21042 12.3046 3.61103 12.8931 4.1125 13.3891C4.61875 13.8891 5.20625 14.2828 5.86094 14.5562C6.53906 14.8406 7.25781 14.9844 8 14.9844C8.74219 14.9844 9.46094 14.8406 10.1391 14.5578C10.7921 14.286 11.386 13.8895 11.8875 13.3906C12.3938 12.8906 12.7906 12.3062 13.0672 11.6578C13.3543 10.9862 13.5015 10.2632 13.5 9.53281C13.5 8.77031 13.3438 8.02968 13.0328 7.33124Z"/>
</symbol>

<symbol xmlns="http://www.w3.org/2000/svg" width="16" height="16" viewBox="0 0 16 16" id="house" fill="currentColor">
<title>house</title>
  <path d="M14 7.22126V13C13.9999 13.1812 13.9508 13.3591 13.8579 13.5147C13.765 13.6703 13.6317 13.7979 13.4723 13.8839C13.3278 13.9622 13.1657 14.0021 13.0014 13.9999H9.99782C9.86521 13.9999 9.73803 13.9473 9.64426 13.8535C9.5505 13.7597 9.49782 13.6326 9.49782 13.4999V10.4995C9.49782 10.3669 9.44514 10.2397 9.35137 10.146C9.2576 10.0522 9.13043 9.99951 8.99782 9.99951H6.99782C6.86521 9.99951 6.73803 10.0522 6.64426 10.146C6.5505 10.2397 6.49782 10.3669 6.49782 10.4995V13.4999C6.49782 13.6326 6.44514 13.7597 6.35137 13.8535C6.2576 13.9473 6.13043 13.9999 5.99782 13.9999H3.00013C2.85836 14.0003 2.71816 13.9704 2.5889 13.9121C2.45965 13.8539 2.34434 13.7687 2.25069 13.6623C2.08631 13.4721 1.99714 13.2285 2.00001 12.9771V7.2212C2.00011 7.08187 2.02928 6.9441 2.08564 6.81669C2.142 6.68927 2.22431 6.57501 2.32732 6.4812L7.32688 1.93539C7.51053 1.76717 7.75053 1.67385 7.99957 1.67383C8.24862 1.6738 8.48864 1.76708 8.67232 1.93526L13.6728 6.48126C13.7757 6.57509 13.858 6.68935 13.9144 6.81677C13.9707 6.94418 13.9999 7.08194 14 7.22126Z"/>
</symbol>

<symbol xmlns="http://www.w3.org/2000/svg" width="16" height="16" viewBox="0 0 16 16" id="wallet" fill="currentColor">
<title>wallet</title>
  <path d="M12.8 4.79999H2.79998V4.39999L11.6 3.69599V4.39999H12.8V3.19999C12.8 2.31999 12.0872 1.70239 11.2168 1.82639L3.18398 2.97359C2.31278 3.09839 1.59998 3.91999 1.59998 4.79999V12.8C1.59998 13.2243 1.76855 13.6313 2.0686 13.9314C2.36866 14.2314 2.77563 14.4 3.19998 14.4H12.8C13.2243 14.4 13.6313 14.2314 13.9313 13.9314C14.2314 13.6313 14.4 13.2243 14.4 12.8V6.39999C14.4 5.97564 14.2314 5.56868 13.9313 5.26862C13.6313 4.96856 13.2243 4.79999 12.8 4.79999ZM11.6 10.4048C11.4423 10.4047 11.2863 10.3736 11.1406 10.3133C10.995 10.2529 10.8627 10.1644 10.7513 10.0529C10.6399 9.94141 10.5515 9.80905 10.4912 9.66339C10.4309 9.51773 10.3999 9.36163 10.4 9.20399C10.4 9.04635 10.4311 8.89027 10.4915 8.74465C10.5519 8.59903 10.6403 8.46673 10.7518 8.3553C10.8634 8.24387 10.9957 8.15549 11.1414 8.09521C11.287 8.03493 11.4431 8.00394 11.6008 8.00399C11.9191 8.0041 12.2244 8.13067 12.4495 8.35586C12.6745 8.58105 12.8009 8.88642 12.8008 9.20479C12.8007 9.52315 12.6741 9.82844 12.4489 10.0535C12.2237 10.2785 11.9183 10.4049 11.6 10.4048Z"/>
</symbol>
</defs>
</svg>
